<svg width="13" height="14" viewBox="0 0 13 14" fill="none" xmlns="http://www.w3.org/2000/svg">
<path fill-rule="evenodd" clip-rule="evenodd" d="M7.27786 10.5645L10.8486 6.99375C10.9209 6.92144 11.0067 6.86407 11.1011 6.82491C11.1956 6.78576 11.2968 6.76558 11.399 6.76555C11.5012 6.76551 11.6025 6.78561 11.6969 6.8247C11.7914 6.86379 11.8772 6.9211 11.9496 6.99337C12.0219 7.06563 12.0792 7.15143 12.1184 7.24586C12.1576 7.3403 12.1777 7.44152 12.1778 7.54376C12.1778 7.64599 12.1577 7.74723 12.1186 7.84169C12.0795 7.93615 12.0222 8.02199 11.95 8.09431L7.04997 12.9943C6.90411 13.1401 6.70632 13.222 6.50008 13.222C6.29384 13.222 6.09605 13.1401 5.9502 12.9943L1.05021 8.09431C0.904272 7.94816 0.822364 7.75002 0.82251 7.54348C0.822656 7.33694 0.904843 7.13892 1.05099 6.99298C1.19714 6.84703 1.39528 6.76513 1.60182 6.76527C1.80836 6.76542 2.00638 6.84761 2.15232 6.99375L5.72231 10.5645V1.55555C5.72231 1.34927 5.80425 1.15144 5.95011 1.00558C6.09597 0.859723 6.2938 0.777779 6.50008 0.777779C6.70636 0.777779 6.90419 0.859723 7.05005 1.00558C7.19591 1.15144 7.27786 1.34927 7.27786 1.55555V10.5645Z" fill="#329EFF"/>
</svg>
