<svg width="124" height="24" viewBox="0 0 124 24" fill="none" xmlns="http://www.w3.org/2000/svg">
<path d="M63.7546 16.75C62.6947 17.365 61.373 17.7314 60.1298 17.7314C57.5126 17.7314 55.5759 16.0564 55.5759 13.0205V0H59.6326V3.92578H63.5322V6.76542H59.6326V12.3269C59.6326 13.6748 60.1691 14.316 61.0589 14.2898C61.53 14.2898 62.1974 14.1066 62.9171 13.7533L63.7546 16.75Z" fill="white"/>
<path d="M76.6838 12.6671L79.0131 14.787C77.3643 16.7237 75.192 17.7051 72.601 17.7051C68.0733 17.7051 65.0243 14.787 65.0243 10.4424C65.0243 6.15026 67.8639 3.17976 72.3393 3.15358C76.4745 3.12741 79.1963 5.63991 79.3665 9.72272L69.5128 12.3137C70.1278 13.6878 71.3448 14.5122 72.902 14.5122C74.276 14.5253 75.5977 13.884 76.6838 12.6671ZM69.1071 9.89284L75.3622 8.19166C74.9172 6.81764 73.9358 6.17643 72.5487 6.17643C70.5335 6.17643 69.238 7.47194 69.1071 9.89284Z" fill="white"/>
<path d="M96.3909 3.29786V17.5484H92.3342V15.507C91.3266 16.9072 89.7956 17.7055 87.8589 17.7055C83.8022 17.7055 81.1327 14.7611 81.1327 10.3643C81.1327 6.04591 83.7499 3.15392 87.728 3.12775C89.7432 3.12775 91.3005 3.92599 92.3342 5.35235V3.29786H96.3909ZM92.3473 10.9531V9.99786C92.138 7.93028 90.7639 6.53009 88.8272 6.53009C86.7073 6.53009 85.2548 8.17891 85.2286 10.482C85.2548 12.8113 86.6811 14.434 88.8272 14.434C90.7508 14.4209 92.1249 13.0207 92.3473 10.9531Z" fill="white"/>
<path d="M123.531 8.58437V17.5351H119.475V9.77519C119.475 7.94316 118.415 6.85703 116.713 6.85703C114.751 6.8832 113.56 8.41425 113.56 10.4818V17.5351H109.503V9.77519C109.503 7.94316 108.443 6.85703 106.768 6.85703C104.779 6.8832 103.588 8.41425 103.588 10.4818V17.5351H99.5055V3.29766H103.588V5.75781C104.596 4.0043 106.271 3.1668 108.417 3.14062C110.825 3.14062 112.552 4.35761 113.246 6.42519C114.175 4.22676 115.981 3.1668 118.388 3.14062C121.542 3.12754 123.531 5.24746 123.531 8.58437Z" fill="white"/>
<path d="M32.4923 7.15783C32.4923 6.41193 33.1859 6.09787 34.1412 6.09787C35.332 6.09787 36.9285 6.59514 38.4857 7.47189L39.8728 4.69768C38.2763 3.69006 36.2742 3.1012 34.3113 3.1012C31.2099 3.1012 28.6974 4.60608 28.6974 7.55041C28.6974 12.5623 36.091 11.3453 36.091 13.6223C36.091 14.3943 35.3189 14.7346 34.2851 14.7346C32.9242 14.7346 31.3015 14.2504 29.9275 13.3736L28.5535 16.1086C30.1107 17.1555 32.1259 17.7051 34.1935 17.7051C37.4257 17.7051 39.9906 16.174 39.9906 13.2559C40.0167 8.21779 32.4923 9.30392 32.4923 7.15783Z" fill="white"/>
<path d="M45.709 7.15783C45.709 6.41193 46.4025 6.09787 47.3578 6.09787C48.5486 6.09787 50.1451 6.59514 51.7023 7.47189L53.1025 4.69768C51.506 3.69006 49.5039 3.1012 47.541 3.1012C44.4396 3.1012 41.9271 4.60608 41.9271 7.55041C41.9271 12.5623 49.3207 11.3453 49.3207 13.6223C49.3207 14.3943 48.5486 14.7346 47.5148 14.7346C46.1539 14.7346 44.5312 14.2504 43.1572 13.3736L41.7832 16.1086C43.3404 17.1555 45.3557 17.7051 47.4232 17.7051C50.6555 17.7051 53.2203 16.174 53.2203 13.2559C53.2334 8.21779 45.709 9.30392 45.709 7.15783Z" fill="white"/>
<path d="M22.3769 3.29813V5.35262C21.3431 3.92626 19.7859 3.12801 17.7707 3.12801C16.4883 3.1411 15.3367 3.45516 14.3814 4.01786C15.2058 4.71141 16.2789 6.43875 16.5013 7.39402C17.1033 6.8575 17.9408 6.51727 18.8568 6.51727C20.7935 6.51727 22.1676 7.91746 22.3769 9.98504V10.9403C22.1676 13.0079 20.7935 14.4081 18.8568 14.4081C16.9986 14.4081 15.6638 13.3219 15.3498 11.3983C15.3105 11.1759 15.0096 8.37547 14.6301 7.43328C13.5963 4.9077 11.4633 3.11493 8.54511 3.11493C6.60839 3.11493 5.07734 3.91317 4.06972 5.31336V3.29813H0V24.0001H4.05664V15.4811C5.09042 16.9075 6.64765 17.7057 8.66288 17.7057C9.98456 17.6926 11.1623 17.3655 12.1437 16.7766C11.2146 15.9915 10.5211 14.853 10.05 13.3219C9.42186 13.9501 8.57128 14.3165 7.57675 14.3165C5.64003 14.3165 4.26601 12.9163 4.05664 10.8487V9.89344C4.26601 7.82586 5.64003 6.42567 7.57675 6.42567C9.47421 6.42567 10.9006 7.68191 11.123 9.59246C11.7119 14.8399 14.0412 17.7057 17.9015 17.7057C19.8383 17.7057 21.3693 16.9075 22.3769 15.5073V17.5487H26.4336V3.29813H22.3769Z" fill="white"/>
</svg>
