<svg width="15" height="13" viewBox="0 0 15 13" fill="none" xmlns="http://www.w3.org/2000/svg">
<path d="M14.5313 0.999999H0.46875C0.1875 0.999999 0 0.799999 0 0.5C0 0.2 0.1875 0 0.46875 0H14.5313C14.8125 0 15 0.2 15 0.5C15 0.799999 14.8125 0.999999 14.5313 0.999999Z" fill="#2C2C2C"/>
<path d="M14.5313 7H0.46875C0.1875 7 0 6.8 0 6.5C0 6.2 0.1875 6 0.46875 6H14.5313C14.8125 6 15 6.2 15 6.5C15 6.8 14.8125 7 14.5313 7Z" fill="#2C2C2C"/>
<path d="M14.5313 13H0.46875C0.1875 13 0 12.8 0 12.5C0 12.2 0.1875 12 0.46875 12H14.5313C14.8125 12 15 12.2 15 12.5C15 12.8 14.8125 13 14.5313 13Z" fill="#2C2C2C"/>
</svg>
