<svg width="20" height="20" viewBox="0 0 20 20" fill="none" xmlns="http://www.w3.org/2000/svg">
<path d="M5.16309 5.16357H8.33309V8.33357H5.16309V5.16357Z" stroke="#6F7782" stroke-width="1.2" stroke-linecap="round" stroke-linejoin="round"/>
<path d="M5.09961 11.7666H8.33294V14.9999H5.09961V11.7666Z" stroke="#6F7782" stroke-width="1.2" stroke-linecap="round" stroke-linejoin="round"/>
<path d="M11.667 13.3332V11.6665" stroke="#6F7782" stroke-width="1.2" stroke-linecap="round" stroke-linejoin="round"/>
<path d="M14.8337 14.8335H13.167" stroke="#6F7782" stroke-width="1.2" stroke-linecap="round" stroke-linejoin="round"/>
<path d="M14.8994 8.23291H11.6661V4.99958H14.8994V8.23291Z" stroke="#6F7782" stroke-width="1.2" stroke-linecap="round" stroke-linejoin="round"/>
<path d="M17.9167 6.64834V3.75001C17.9167 2.82918 17.1708 2.08334 16.25 2.08334H13.3517" stroke="#6F7782" stroke-width="1.2" stroke-linecap="round" stroke-linejoin="round"/>
<path d="M13.583 11.6665H14.833" stroke="#6F7782" stroke-width="1.2" stroke-linecap="round" stroke-linejoin="round"/>
<path d="M6.64801 2.0835H3.74967C2.82884 2.0835 2.08301 2.82933 2.08301 3.75016V6.6485" stroke="#6F7782" stroke-width="1.2" stroke-linecap="round" stroke-linejoin="round"/>
<path d="M2.08301 13.3516V16.2499C2.08301 17.1707 2.82884 17.9166 3.74967 17.9166H6.64801" stroke="#6F7782" stroke-width="1.2" stroke-linecap="round" stroke-linejoin="round"/>
<path d="M13.3517 17.9167H16.25C17.1708 17.9167 17.9167 17.1708 17.9167 16.25V13.3517" stroke="#6F7782" stroke-width="1.2" stroke-linecap="round" stroke-linejoin="round"/>
</svg>
