<svg width="20" height="20" viewBox="0 0 20 20" fill="none" xmlns="http://www.w3.org/2000/svg">
<path d="M15.8164 5.81689L17.4997 7.50023" stroke="#6F7782" stroke-width="1.2" stroke-linecap="round" stroke-linejoin="round"/>
<path d="M15.8167 2.37848C16.766 3.32778 16.766 4.8669 15.8167 5.8162C14.8674 6.7655 13.3283 6.7655 12.379 5.8162C11.4297 4.8669 11.4297 3.32778 12.379 2.37848C13.3283 1.42918 14.8674 1.42918 15.8167 2.37848" stroke="#6F7782" stroke-width="1.2" stroke-linecap="round" stroke-linejoin="round"/>
<path d="M9.16667 6.25H3.33333C2.87333 6.25 2.5 5.87667 2.5 5.41667V3.33333C2.5 2.87333 2.87333 2.5 3.33333 2.5H9.16667" stroke="#6F7782" stroke-width="1.2" stroke-linecap="round" stroke-linejoin="round"/>
<path d="M4.375 12.0833H3.125C2.78 12.0833 2.5 11.8033 2.5 11.4583V10.2083C2.5 9.86334 2.78 9.58334 3.125 9.58334H4.375C4.72 9.58334 5 9.86334 5 10.2083V11.4583C5 11.8033 4.72 12.0833 4.375 12.0833Z" stroke="#6F7782" stroke-width="1.2" stroke-linecap="round" stroke-linejoin="round"/>
<path d="M7.68457 10.8335H17.4996" stroke="#6F7782" stroke-width="1.2" stroke-linecap="round" stroke-linejoin="round"/>
<path d="M4.375 17.5H3.125C2.78 17.5 2.5 17.22 2.5 16.875V15.625C2.5 15.28 2.78 15 3.125 15H4.375C4.72 15 5 15.28 5 15.625V16.875C5 17.22 4.72 17.5 4.375 17.5Z" stroke="#6F7782" stroke-width="1.2" stroke-linecap="round" stroke-linejoin="round"/>
<path d="M7.68457 16.25H17.4996" stroke="#6F7782" stroke-width="1.2" stroke-linecap="round" stroke-linejoin="round"/>
</svg>
