<svg width="24" height="13" viewBox="0 0 24 13" fill="none" xmlns="http://www.w3.org/2000/svg">
<path d="M23.5312 1.00006H9.46872C9.18747 1.00006 8.99997 0.80006 8.99997 0.500061C8.99997 0.200061 9.18747 6.10352e-05 9.46872 6.10352e-05H23.5312C23.8125 6.10352e-05 24 0.200061 24 0.500061C24 0.80006 23.8125 1.00006 23.5312 1.00006Z" fill="white"/>
<path d="M23.5312 7.00006H9.46872C9.18747 7.00006 8.99997 6.80006 8.99997 6.50006C8.99997 6.20006 9.18747 6.00006 9.46872 6.00006H23.5312C23.8125 6.00006 24 6.20006 24 6.50006C24 6.80006 23.8125 7.00006 23.5312 7.00006Z" fill="white"/>
<path d="M23.5312 13.0001H9.46872C9.18747 13.0001 8.99997 12.8001 8.99997 12.5001C8.99997 12.2001 9.18747 12.0001 9.46872 12.0001H23.5312C23.8125 12.0001 24 12.2001 24 12.5001C24 12.8001 23.8125 13.0001 23.5312 13.0001Z" fill="white"/>
<path d="M3.7 10.4001C3.55 10.4001 3.45 10.3501 3.35 10.2501L0 6.50011L3.35 2.60011C3.55 2.40011 3.85 2.35011 4.05 2.55011C4.25 2.75011 4.3 3.05011 4.1 3.25011L1.3 6.50011L4.05 9.60011C4.25 9.80011 4.2 10.1001 4 10.3001C3.95 10.3501 3.85 10.4001 3.7 10.4001Z" fill="white"/>
</svg>
